# xmcd
#
# Track frame offsets: 
#        150
#        18150
#        36660
#        49702
#        67704
#        93177
#        106603
#        121243
#        134445
#        161379
#        173676
#        192072
#        217002
#        230839
#        252762
#        270453
#        318088
#        336688
#        346550
#
# Disc length: 4754 seconds
#
# Revision: 2
# Processed by: cddbd v1.5.2PL0 Copyright (c) Steve Scherf et al.
# Submitted via: ExactAudioCopyFreeDBPlugin 1.0
#
DISCID=fd129013
DTITLE=John Denver - All Of My Memories - CD 4
DYEAR=2014
DGENRE=Country
TTITLE0=Some Days Are Diamonds (Some Days Are Stone)
TTITLE1=Dreamland Express
TTITLE2=Love Again
TTITLE3=Opposite Tables
TTITLE4=Flying For Me
TTITLE5=Perhaps Love
TTITLE6=Shanghai Breezes
TTITLE7=The Flower That Shattered The Stone
TTITLE8=Let Us Begin (What Are We Making Weapons For)
TTITLE9=Love Is The Master
TTITLE10=Wild Montana Skies
TTITLE11=Boy From The Country (live)
TTITLE12=Whispering Jesse
TTITLE13=Eaglesand Horses (live)
TTITLE14=And So It Goes
TTITLE15=The Foxfire Suite Spring Is Alive-You Are-Whisper The Wind-Sp
TTITLE15=ring Is Alive (reprise)(live)
TTITLE16=Tenderly Calling
TTITLE17=On The Atchison Topeka And The Santa Fe
TTITLE18=Medley Tumbling Tumbleweeds-Happy Trails
EXTD=
EXTT0=
EXTT1=
EXTT2=
EXTT3=
EXTT4=
EXTT5=
EXTT6=
EXTT7=
EXTT8=
EXTT9=
EXTT10=
EXTT11=
EXTT12=
EXTT13=
EXTT14=
EXTT15=
EXTT16=
EXTT17=
EXTT18=
PLAYORDER=
